<?xml version="1.0" encoding="UTF-8"?>
<!DOCTYPE svg PUBLIC "-//W3C//DTD SVG 1.1//EN" "http://www.w3.org/Graphics/SVG/1.1/DTD/svg11.dtd">
<!-- Creator: CorelDRAW 2020 (64-Bit) -->
<svg xmlns="http://www.w3.org/2000/svg" xml:space="preserve" width="127mm" height="76.2mm" version="1.1" style="shape-rendering:geometricPrecision; text-rendering:geometricPrecision; image-rendering:optimizeQuality; fill-rule:evenodd; clip-rule:evenodd"
viewBox="0 0 12700 7620"
 xmlns:xlink="http://www.w3.org/1999/xlink"
 xmlns:xodm="http://www.corel.com/coreldraw/odm/2003">
 <defs>
  <style type="text/css">
   <![CDATA[
    .fil1 {fill:#A32D21}
    .fil0 {fill:#ECAD5D}
    .fil2 {fill:#0F2131;fill-rule:nonzero}
   ]]>
  </style>
 </defs>
 <g id="Layer_x0020_1">
  <metadata id="CorelCorpID_0Corel-Layer"/>
  <rect class="fil0" x="3038.9" y="5865.06" width="8074.32" height="181.58" rx="454.29" ry="90.79"/>
  <path class="fil0" d="M3149.02 2409.32l1116.29 -710.77 0 -924.42 0 -0.01c0,-49.94 40.85,-90.79 90.78,-90.79l0.01 0 604.76 0 0.01 0c49.93,0 90.78,40.85 90.78,90.79l0 0.01 0 423.73 1449.68 -923.06c31.75,-20.21 71.62,-18.07 100.81,2.26l670.2 426.73 627.98 -399.84c31.75,-20.22 71.62,-18.07 100.81,2.25l3349.67 2132.84c42.11,26.81 54.64,83.21 27.82,125.33l-0.01 0.02c-26.82,42.12 -83.22,54.63 -125.34,27.82l-3304.31 -2103.96 -507.57 323.19 2510.42 1598.45c42.11,26.82 54.64,83.22 27.82,125.34l-0.01 0.01c-26.82,42.12 -83.22,54.64 -125.34,27.82 -1101.44,-701.31 -2202.87,-1402.64 -3304.31,-2103.95 -1074.09,683.9 -1590.39,1012.64 -2103.08,1339.09 -399.28,254.22 -800.14,509.47 -1200.34,764.29 -42.12,26.82 -98.51,14.3 -125.34,-27.82l0 -0.01c-26.83,-42.12 -14.3,-98.52 27.81,-125.34zm1297.87 -826.39l423.18 -269.46 0 -448.56 -423.18 0 0 718.02z"/>
  <path class="fil1" d="M1307.24 2869.18l335.18 0 364.32 500.94 1635.81 -103.82c0,0 149.38,-5.47 293.28,72.86l24.61 44.18c0,0 257.78,116.11 275.99,150.72 18.22,34.61 167.59,331.51 -1165.81,265.93l-542.84 338.82 -437.18 16.39 353.39 -358.85c-117.66,-6.49 -1068.72,-34.87 -1031.03,-136.62 0,0 -76.51,-10.92 -74.69,-74.68 0,0 5.47,-61.94 185.81,-49.19l-216.84 -666.68z"/>
  <path class="fil1" d="M2300.36 2814.37l270.51 2.73 409.86 388.91c0,0 47.37,61.93 1.82,71.95 -45.54,10.03 -441.74,30.97 -441.74,30.97l-240.45 -494.56z"/>
  <path class="fil1" d="M7995.59 4238.84l100.19 -23.68 94.73 23.68c25.76,6.44 48.27,21.72 48.27,48.27l0 36.44c0,26.56 -21.72,48.27 -48.27,48.27l-23.69 78.31 125.69 836.12 -183.98 202.2 -213.13 -224.06 131.16 -823.37 -30.97 -69.2c-26.56,0 -48.27,-21.71 -48.27,-48.27l0 -36.44c0,-26.55 22.42,-42.16 48.27,-48.27z"/>
  <path class="fil2" d="M4660.83 3908.27l0 -1238.63 916.87 0 0 209.32 -666.03 0 0 275.06 619.32 0 0 209.32 -619.32 0 0 335.61 690.25 0 0 209.32 -941.09 0zm1067.37 -252.57l238.73 -36.33c10.09,45.84 30.56,80.73 61.7,104.37 30.85,23.93 74.39,35.76 130.03,35.76 61.42,0 107.55,-11.25 138.69,-33.74 20.75,-15.86 31.13,-37.19 31.13,-63.72 0,-17.87 -5.76,-32.87 -17.01,-44.69 -11.82,-11.24 -38.34,-21.91 -79.29,-31.42 -191.73,-42.39 -313.11,-81.02 -364.43,-115.91 -71.22,-48.73 -106.68,-116.19 -106.68,-202.4 0,-78.14 30.85,-143.58 92.26,-196.64 61.41,-53.05 156.56,-79.57 285.44,-79.57 122.82,0 214.22,20.18 273.9,60.26 59.69,40.36 100.92,99.76 123.41,178.47l-223.17 41.52c-9.51,-35.18 -27.96,-62.28 -54.78,-81.02 -26.81,-18.74 -65.16,-27.97 -115.04,-27.97 -62.85,0 -107.83,8.65 -135.22,26.24 -18.16,12.4 -27.1,28.54 -27.1,48.15 0,17.01 7.78,31.42 23.64,43.25 21.62,15.85 95.72,38.05 222.58,66.89 126.87,28.83 215.38,64 265.55,105.81 49.88,42.1 74.67,101.2 74.67,176.74 0,82.17 -34.31,153.1 -103.21,212.21 -68.63,59.1 -170.4,88.8 -305.34,88.8 -122.25,0 -219.12,-24.8 -290.63,-74.1 -71.21,-49.3 -117.92,-116.19 -139.83,-200.96zm1456.89 -645.26l0 188.56 -162.62 0 0 363.57c0,73.81 1.45,116.77 4.62,128.88 3.17,12.11 10.09,22.2 21.33,30.28 10.96,7.78 24.22,11.82 40.08,11.82 22.2,0 53.92,-7.5 95.72,-22.78l19.9 184.53c-55.07,23.64 -117.35,35.46 -187.12,35.46 -42.67,0 -81.02,-7.21 -115.33,-21.63 -34.31,-14.41 -59.4,-33.15 -75.25,-55.93 -16.15,-23.07 -27.11,-53.92 -33.45,-93.13 -4.9,-27.68 -7.5,-83.61 -7.5,-168.09l0 -392.98 -108.98 0 0 -188.56 108.98 0 0 -178.19 237 -140.12 0 318.31 162.62 0zm342.53 276.79l-214.51 -38.06c24.22,-87.65 66.02,-152.53 125.13,-194.62 59.1,-42.1 147.04,-63.14 263.52,-63.14 105.82,0 184.82,12.39 236.72,37.48 51.61,25.08 88.22,56.8 109.27,95.43 21.05,38.64 31.72,109.28 31.72,212.5l-3.46 276.79c0,78.71 3.74,136.95 11.24,174.43 7.5,37.48 21.62,77.56 42.38,120.23l-235.27 0c-6.05,-15.57 -13.84,-38.64 -22.77,-69.2 -3.75,-14.12 -6.64,-23.35 -8.37,-27.68 -40.36,39.79 -83.61,69.49 -129.74,89.38 -46.13,19.9 -95.15,29.99 -147.33,29.99 -91.98,0 -164.63,-25.08 -217.69,-75.25 -53.05,-49.88 -79.57,-113.31 -79.57,-190.01 0,-50.45 12.11,-95.72 36.33,-135.51 24.22,-39.5 57.95,-70.06 101.77,-91.11 43.54,-21.05 106.39,-39.5 188.57,-55.36 110.71,-20.75 187.69,-40.36 230.36,-58.24l0 -23.93c0,-46.13 -11.24,-79 -33.73,-98.89 -22.78,-19.61 -65.45,-29.41 -128.01,-29.41 -42.39,0 -75.26,8.36 -98.9,25.37 -23.93,16.72 -42.96,46.42 -57.66,88.81zm318.3 192.02c-30.27,10.09 -78.42,22.2 -144.44,36.33 -65.74,14.12 -108.99,27.96 -129.17,41.23 -30.85,22.2 -46.42,49.88 -46.42,83.61 0,33.44 12.4,61.99 37.19,86.21 24.8,24.22 56.22,36.33 94.57,36.33 42.67,0 83.61,-14.13 122.54,-42.1 28.54,-21.62 47.57,-47.57 56.51,-78.71 6.05,-20.18 9.22,-58.82 9.22,-115.62l0 -47.28zm877.37 -468.81l0 188.56 -162.62 0 0 363.57c0,73.81 1.45,116.77 4.62,128.88 3.17,12.11 10.09,22.2 21.33,30.28 10.96,7.78 24.22,11.82 40.08,11.82 22.2,0 53.92,-7.5 95.72,-22.78l19.9 184.53c-55.07,23.64 -117.35,35.46 -187.12,35.46 -42.67,0 -81.02,-7.21 -115.33,-21.63 -34.31,-14.41 -59.4,-33.15 -75.25,-55.93 -16.15,-23.07 -27.11,-53.92 -33.45,-93.13 -4.9,-27.68 -7.5,-83.61 -7.5,-168.09l0 -392.98 -108.98 0 0 -188.56 108.98 0 0 -178.19 237 -140.12 0 318.31 162.62 0zm685.05 614.12l237 39.79c-30.27,86.78 -78.42,152.81 -143.87,198.37 -65.74,45.26 -147.91,68.04 -246.22,68.04 -155.99,0 -271.6,-51.03 -346.28,-153.1 -59.11,-81.88 -88.8,-185.1 -88.8,-309.95 0,-148.77 38.92,-265.54 116.48,-349.73 77.56,-84.48 175.88,-126.57 294.66,-126.57 133.21,0 238.45,44.11 315.72,132.34 76.98,88.22 113.88,223.45 110.42,405.67l-593.36 0c1.73,70.35 20.76,125.13 57.37,164.34 36.33,39.21 81.89,58.82 136.09,58.82 37.2,0 68.33,-10.09 93.42,-30.28 25.37,-20.18 44.4,-52.76 57.37,-97.74zm13.84 -240.46c-1.73,-68.91 -19.31,-121.38 -53.05,-157.13 -33.73,-36.04 -74.67,-53.92 -123.11,-53.92 -51.61,0 -94.28,19.03 -128.02,56.8 -33.73,37.77 -50.16,89.38 -49.59,154.25l353.77 0z"/>
  <path class="fil2" d="M3995.27 5476.66l-268.8 0 -106.43 -280.57 -494.3 0 -102.41 280.57 -263.93 0 478.51 -1232.43 263.64 0 493.72 1232.43zm-456.13 -488.84l-171.27 -456.14 -166.39 456.14 337.66 0zm1177.63 488.84l0 -133.69c-32.71,47.63 -75.45,85.49 -128.52,113.9 -53.08,28.11 -109.02,42.17 -167.83,42.17 -60.24,0 -114.18,-13.2 -161.8,-39.59 -47.91,-26.4 -82.33,-63.69 -103.56,-111.31 -21.52,-47.91 -32.13,-113.89 -32.13,-198.23l0 -566.59 235.81 0 0 411.38c0,125.94 4.31,202.83 13.2,231.23 8.61,28.4 24.38,51.06 47.62,67.41 22.95,16.64 52.21,24.96 87.79,24.96 40.45,0 76.59,-11.19 108.72,-33.27 32.13,-22.09 53.94,-49.63 65.7,-82.63 11.76,-32.99 17.78,-113.31 17.78,-241.55l0 -377.53 235.82 0 0 893.34 -218.6 0zm868.95 -893.34l0 187.62 -161.8 0 0 361.75c0,73.44 1.44,116.19 4.59,128.24 3.16,12.05 10.04,22.09 21.23,30.12 10.9,7.75 24.1,11.76 39.88,11.76 22.09,0 53.64,-7.46 95.24,-22.66l19.8 183.6c-54.8,23.52 -116.76,35.29 -186.19,35.29 -42.46,0 -80.61,-7.18 -114.75,-21.52 -34.14,-14.34 -59.1,-32.99 -74.87,-55.65 -16.07,-22.95 -26.97,-53.65 -33.28,-92.67 -4.88,-27.54 -7.46,-83.19 -7.46,-167.25l0 -391.01 -108.44 0 0 -187.62 108.44 0 0 -177.29 235.81 -139.42 0 316.71 161.8 0zm110.16 435.77c0,-78.61 19.22,-154.63 57.95,-228.07 38.73,-73.73 93.52,-129.67 164.38,-168.4 70.86,-38.73 149.75,-58.23 237.25,-58.23 135.12,0 245.57,43.89 331.92,131.67 86.35,88.08 129.38,198.81 129.38,333.07 0,135.41 -43.61,247.58 -130.53,336.51 -87.21,88.93 -196.8,133.4 -329.05,133.4 -81.76,0 -159.79,-18.65 -234.09,-55.66 -74.02,-37.01 -130.53,-91.23 -169.26,-162.94 -38.73,-71.44 -57.95,-158.65 -57.95,-261.35zm242.7 12.62c0,88.65 20.94,156.64 62.83,203.69 42.17,47.33 93.81,70.85 155.48,70.85 61.4,0 113.03,-23.52 154.63,-70.85 41.6,-47.05 62.54,-115.62 62.54,-205.41 0,-87.5 -20.94,-154.91 -62.54,-201.96 -41.6,-47.34 -93.23,-70.86 -154.63,-70.86 -61.67,0 -113.31,23.52 -155.48,70.86 -41.89,47.05 -62.83,115.04 -62.83,203.68zm865.51 444.95l0 -1232.43 399.05 0c151.19,0 249.58,6.03 295.49,18.36 70.57,18.65 129.66,58.81 177.29,120.78 47.62,61.96 71.43,142 71.43,240.11 0,75.74 -13.77,139.14 -41.02,190.78 -27.55,51.64 -62.26,92.09 -104.43,121.63 -42.17,29.27 -85.2,48.77 -128.81,58.24 -59.38,11.76 -145.16,17.79 -257.61,17.79l-161.8 0 0 464.74 -249.59 0zm249.59 -1024.16l0 351.14 135.69 0c97.83,0 162.95,-6.59 195.94,-19.5 32.99,-12.91 58.81,-33 77.46,-60.82 18.64,-27.54 28.11,-59.39 28.11,-96.11 0,-45.04 -13.2,-82.04 -39.3,-111.31 -26.4,-29.26 -59.39,-47.62 -99.84,-55.08 -29.54,-5.45 -88.93,-8.32 -178.43,-8.32l-119.63 0z"/>
  <path class="fil2" d="M8539.4 5476.65l0 -1232.43 235.82 0 0 1232.43 -235.82 0zm423.15 -457.57c0,-78.61 19.22,-154.63 57.95,-228.07 38.73,-73.73 93.52,-129.67 164.38,-168.4 70.86,-38.73 149.75,-58.23 237.25,-58.23 135.12,0 245.57,43.89 331.92,131.67 86.35,88.08 129.38,198.81 129.38,333.07 0,135.41 -43.61,247.58 -130.53,336.51 -87.21,88.93 -196.8,133.4 -329.05,133.4 -81.76,0 -159.79,-18.65 -234.09,-55.66 -74.02,-37.01 -130.53,-91.23 -169.26,-162.94 -38.73,-71.44 -57.95,-158.65 -57.95,-261.35zm242.7 12.62c0,88.65 20.94,156.64 62.83,203.69 42.17,47.33 93.81,70.85 155.48,70.85 61.4,0 113.03,-23.52 154.63,-70.85 41.6,-47.05 62.54,-115.62 62.54,-205.41 0,-87.5 -20.94,-154.91 -62.54,-201.96 -41.6,-47.34 -93.23,-70.86 -154.63,-70.86 -61.67,0 -113.31,23.52 -155.48,70.86 -41.89,47.05 -62.83,115.04 -62.83,203.68zm1271.73 -448.39l0 187.62 -161.8 0 0 361.75c0,73.44 1.44,116.19 4.59,128.24 3.16,12.05 10.04,22.09 21.23,30.12 10.9,7.75 24.1,11.76 39.88,11.76 22.09,0 53.64,-7.46 95.24,-22.66l19.8 183.6c-54.8,23.52 -116.76,35.29 -186.19,35.29 -42.46,0 -80.61,-7.18 -114.75,-21.52 -34.14,-14.34 -59.1,-32.99 -74.87,-55.65 -16.07,-22.95 -26.97,-53.65 -33.28,-92.67 -4.88,-27.54 -7.46,-83.19 -7.46,-167.25l0 -391.01 -108.44 0 0 -187.62 108.44 0 0 -177.29 235.81 -139.42 0 316.71 161.8 0zm80.9 642.03l237.53 -36.14c10.05,45.61 30.41,80.32 61.4,103.85 30.69,23.81 74.01,35.57 129.38,35.57 61.1,0 107,-11.19 137.99,-33.56 20.65,-15.78 30.98,-37.01 30.98,-63.4 0,-17.79 -5.74,-32.71 -16.93,-44.47 -11.76,-11.19 -38.15,-21.8 -78.89,-31.27 -190.77,-42.17 -311.55,-80.61 -362.61,-115.33 -70.86,-48.48 -106.15,-115.61 -106.15,-201.38 0,-77.75 30.7,-142.87 91.8,-195.65 61.11,-52.79 155.78,-79.18 284.01,-79.18 122.21,0 213.15,20.08 272.54,59.95 59.38,40.17 100.41,99.26 122.78,177.58l-222.04 41.31c-9.47,-35 -27.83,-61.96 -54.51,-80.61 -26.68,-18.65 -64.83,-27.83 -114.46,-27.83 -62.54,0 -107.3,8.61 -134.55,26.11 -18.07,12.33 -26.97,28.4 -26.97,47.91 0,16.92 7.75,31.27 23.53,43.03 21.51,15.78 95.24,37.87 221.47,66.55 126.23,28.69 214.3,63.69 264.21,105.29 49.63,41.88 74.31,100.69 74.31,175.86 0,81.76 -34.14,152.33 -102.71,211.14 -68.27,58.81 -169.54,88.36 -303.8,88.36 -121.64,0 -218.03,-24.68 -289.17,-73.73 -70.86,-49.06 -117.34,-115.61 -139.14,-199.96z"/>
  <path class="fil2" d="M5430.98 6634.68c0,2.06 -0.39,3.83 -1.18,5.31 -0.79,1.47 -2.56,2.65 -5.41,3.63 -2.94,0.89 -7.07,1.58 -12.67,1.97 -5.61,0.39 -13.18,0.59 -22.71,0.59 -8.06,0 -14.45,-0.2 -19.26,-0.59 -4.82,-0.39 -8.65,-1.08 -11.4,-2.16 -2.76,-1.08 -4.72,-2.36 -5.9,-4.03 -1.08,-1.67 -2.07,-3.64 -2.85,-5.9l-33.62 -83.45c-4.03,-9.43 -7.96,-17.88 -11.79,-25.16 -3.83,-7.37 -8.16,-13.46 -12.88,-18.38 -4.71,-4.91 -10.22,-8.55 -16.41,-11.1 -6.09,-2.46 -13.27,-3.74 -21.33,-3.74l-23.69 0 0 142.42c0,1.87 -0.58,3.64 -1.86,5.11 -1.28,1.57 -3.34,2.85 -6.19,3.83 -2.85,0.89 -6.69,1.67 -11.5,2.26 -4.72,0.59 -10.91,0.89 -18.29,0.89 -7.27,0 -13.36,-0.3 -18.28,-0.89 -4.91,-0.59 -8.74,-1.37 -11.59,-2.26 -2.85,-0.98 -4.92,-2.26 -6,-3.73 -1.18,-1.57 -1.77,-3.34 -1.77,-5.21l0 -338.5c0,-8.45 2.16,-14.55 6.49,-18.28 4.32,-3.74 9.63,-5.6 15.92,-5.6l96.52 0c9.73,0 17.89,0.19 24.18,0.59 6.29,0.39 12.09,0.88 17.29,1.37 14.94,2.16 28.41,5.8 40.4,11.01 11.99,5.11 22.21,11.89 30.57,20.25 8.35,8.35 14.74,18.18 19.16,29.58 4.43,11.4 6.59,24.48 6.59,39.32 0,12.38 -1.57,23.78 -4.72,34 -3.24,10.32 -7.86,19.46 -14.05,27.52 -6.1,8.06 -13.67,15.04 -22.71,20.94 -9.04,5.99 -19.36,10.71 -30.86,14.45 5.6,2.65 10.81,5.89 15.73,9.73 4.91,3.83 9.53,8.55 13.85,14.05 4.33,5.51 8.46,11.7 12.29,18.78 3.83,6.97 7.57,14.94 11.2,23.78l31.55 73.62c2.85,7.27 4.82,12.58 5.71,16.02 0.98,3.34 1.47,5.99 1.47,7.96zm-97.89 -253.09c0,-12.28 -2.76,-22.7 -8.36,-31.06 -5.6,-8.45 -14.74,-14.45 -27.42,-17.89 -3.83,-0.98 -8.16,-1.67 -13.07,-2.26 -4.92,-0.59 -11.7,-0.88 -20.35,-0.88l-34.01 0 0 105.56 38.63 0c10.81,0 20.15,-1.28 28.21,-3.93 8.16,-2.56 14.84,-6.19 20.25,-10.91 5.4,-4.62 9.43,-10.32 12.09,-16.81 2.65,-6.49 4.03,-13.76 4.03,-21.82zm497.56 117.16c0,8.84 -1.97,15.33 -5.9,19.56 -3.93,4.22 -9.33,6.39 -16.31,6.39l-156.48 0c0,10.91 1.28,20.74 3.94,29.68 2.55,8.85 6.68,16.41 12.28,22.61 5.7,6.19 12.98,10.91 21.92,14.15 8.94,3.24 19.56,4.91 32.04,4.91 12.68,0 23.79,-0.88 33.42,-2.75 9.53,-1.87 17.89,-3.83 24.87,-6.09 6.97,-2.26 12.77,-4.23 17.39,-6.1 4.62,-1.86 8.36,-2.75 11.21,-2.75 1.77,0 3.24,0.3 4.32,0.98 1.18,0.69 2.16,1.87 2.95,3.64 0.69,1.67 1.28,4.13 1.57,7.27 0.3,3.15 0.4,7.18 0.4,11.9 0,4.22 -0.1,7.86 -0.3,10.81 -0.2,2.95 -0.49,5.5 -0.88,7.57 -0.4,2.16 -0.89,3.93 -1.67,5.3 -0.79,1.48 -1.77,2.85 -3.05,4.23 -1.28,1.28 -4.62,3.15 -10.22,5.5 -5.61,2.36 -12.68,4.62 -21.33,6.88 -8.65,2.26 -18.48,4.23 -29.59,5.9 -11.1,1.67 -22.99,2.56 -35.67,2.56 -22.9,0 -42.86,-2.85 -60.06,-8.65 -17.1,-5.7 -31.45,-14.45 -43.05,-26.15 -11.5,-11.69 -20.05,-26.53 -25.75,-44.32 -5.6,-17.89 -8.45,-38.83 -8.45,-62.81 0,-22.8 2.95,-43.34 8.94,-61.72 5.9,-18.28 14.55,-33.81 25.95,-46.59 11.3,-12.78 25.06,-22.51 41.28,-29.19 16.32,-6.78 34.6,-10.13 54.94,-10.13 21.53,0 39.91,3.15 55.14,9.54 15.34,6.29 27.82,15.13 37.65,26.34 9.73,11.2 17,24.57 21.62,39.9 4.62,15.34 6.88,32.04 6.88,50.13l0 11.5zm-70.18 -20.64c0.59,-20.35 -3.53,-36.37 -12.28,-47.96 -8.75,-11.7 -22.22,-17.5 -40.5,-17.5 -9.24,0 -17.29,1.77 -24.08,5.21 -6.88,3.44 -12.58,8.06 -17.1,13.96 -4.52,5.89 -7.96,12.77 -10.32,20.73 -2.46,8.06 -3.83,16.52 -4.23,25.56l108.51 0zm468.77 157.45c0,2.66 -0.98,4.72 -2.85,6.29 -1.97,1.58 -5.01,2.66 -9.14,3.35 -4.13,0.68 -10.22,0.98 -18.38,0.98 -8.65,0 -14.94,-0.3 -18.87,-0.98 -3.93,-0.69 -6.78,-1.77 -8.36,-3.35 -1.67,-1.57 -2.45,-3.63 -2.45,-6.29l0 -20.44c-10.62,11.3 -22.61,20.05 -36.17,26.34 -13.47,6.29 -28.51,9.44 -45.02,9.44 -13.56,0 -26.14,-1.77 -37.54,-5.31 -11.41,-3.54 -21.23,-8.85 -29.59,-15.82 -8.35,-7.08 -14.84,-15.73 -19.46,-26.05 -4.62,-10.42 -6.88,-22.51 -6.88,-36.27 0,-15.04 2.95,-28.01 8.75,-39.02 5.89,-11.1 14.64,-20.15 26.24,-27.42 11.6,-7.18 25.95,-12.48 43.25,-15.92 17.2,-3.44 37.25,-5.21 60.05,-5.21l25.06 0 0 -15.53c0,-8.06 -0.78,-15.14 -2.45,-21.23 -1.58,-6 -4.33,-11.11 -8.06,-15.14 -3.74,-4.03 -8.65,-6.98 -14.94,-8.94 -6.2,-1.87 -13.96,-2.85 -23.1,-2.85 -12.09,0 -22.9,1.37 -32.34,4.03 -9.53,2.65 -17.89,5.7 -25.16,8.94 -7.27,3.25 -13.37,6.29 -18.28,8.95 -4.91,2.65 -8.85,4.03 -11.89,4.03 -2.16,0 -4.03,-0.69 -5.61,-1.97 -1.67,-1.38 -3.04,-3.34 -4.02,-5.8 -1.09,-2.46 -1.87,-5.6 -2.46,-9.24 -0.59,-3.63 -0.89,-7.66 -0.89,-11.99 0,-5.99 0.49,-10.71 1.48,-14.15 0.88,-3.44 2.75,-6.49 5.4,-9.34 2.76,-2.75 7.38,-5.8 14.16,-9.14 6.68,-3.34 14.54,-6.49 23.59,-9.34 9.04,-2.95 18.87,-5.3 29.48,-7.07 10.71,-1.87 21.72,-2.76 33.03,-2.76 20.14,0 37.34,1.97 51.69,5.9 14.26,3.93 26.05,10.03 35.19,18.18 9.24,8.16 16.02,18.68 20.25,31.55 4.22,12.78 6.29,28.11 6.29,45.71l0 172.88zm-71.36 -110.27l-27.62 0c-11.69,0 -21.62,0.88 -29.88,2.55 -8.25,1.77 -14.93,4.33 -20.14,7.86 -5.21,3.44 -8.95,7.57 -11.31,12.49 -2.45,4.91 -3.63,10.51 -3.63,16.8 0,10.82 3.44,19.27 10.22,25.36 6.78,6.19 16.22,9.24 28.3,9.24 10.13,0 19.47,-2.55 28.02,-7.76 8.55,-5.21 17.2,-12.78 26.04,-22.81l0 -43.73zm336.19 109.39c0,1.87 -0.59,3.54 -1.77,5.01 -1.08,1.48 -3.05,2.66 -5.9,3.64 -2.75,0.88 -6.49,1.67 -11.01,2.16 -4.62,0.49 -10.51,0.69 -17.59,0.69 -7.08,0 -12.97,-0.2 -17.59,-0.69 -4.52,-0.49 -8.26,-1.28 -11.01,-2.16 -2.85,-0.98 -4.82,-2.16 -5.9,-3.64 -1.18,-1.47 -1.77,-3.14 -1.77,-5.01l0 -378.9c0,-1.96 0.59,-3.63 1.77,-5.2 1.08,-1.48 3.05,-2.85 5.9,-3.84 2.75,-1.08 6.49,-1.87 11.01,-2.46 4.62,-0.58 10.51,-0.88 17.59,-0.88 7.08,0 12.97,0.3 17.59,0.88 4.52,0.59 8.26,1.38 11.01,2.46 2.85,0.99 4.82,2.36 5.9,3.84 1.18,1.57 1.77,3.24 1.77,5.2l0 378.9zm696.86 -20.05c0,5.6 -0.2,10.22 -0.69,14.05 -0.49,3.74 -1.18,6.79 -2.16,9.05 -0.99,2.36 -2.17,4.03 -3.64,5.11 -1.38,1.08 -3.05,1.57 -4.72,1.57l-186.94 0c-6.29,0 -11.6,-1.87 -15.92,-5.6 -4.33,-3.74 -6.49,-9.83 -6.49,-18.28l0 -324.94c0,-8.45 2.16,-14.55 6.49,-18.28 4.32,-3.74 9.63,-5.6 15.92,-5.6l186.06 0c1.67,0 3.24,0.49 4.62,1.47 1.27,0.98 2.45,2.65 3.44,5.01 0.88,2.46 1.67,5.51 2.16,9.24 0.49,3.84 0.69,8.55 0.69,14.35 0,5.41 -0.2,9.93 -0.69,13.76 -0.49,3.74 -1.18,6.78 -2.16,9.05 -0.99,2.35 -2.17,4.02 -3.44,5.11 -1.38,1.08 -2.95,1.57 -4.62,1.57l-132.99 0 0 90.82 112.05 0c1.77,0 3.34,0.49 4.72,1.57 1.47,1.08 2.65,2.65 3.64,4.91 0.98,2.16 1.67,5.11 2.16,8.95 0.49,3.73 0.69,8.25 0.69,13.56 0,5.6 -0.2,10.22 -0.69,13.86 -0.49,3.64 -1.18,6.58 -2.16,8.75 -0.99,2.26 -2.17,3.83 -3.64,4.71 -1.38,0.99 -2.95,1.48 -4.72,1.48l-112.05 0 0 104.97 133.87 0c1.77,0 3.34,0.49 4.72,1.57 1.47,1.08 2.65,2.75 3.64,5.11 0.98,2.26 1.67,5.31 2.16,9.04 0.49,3.84 0.69,8.46 0.69,14.06zm364 -52.68c0,14.54 -2.76,27.42 -8.26,38.62 -5.41,11.11 -13.17,20.35 -23.2,27.92 -10.02,7.47 -21.81,13.07 -35.48,16.8 -13.66,3.74 -28.4,5.61 -44.32,5.61 -9.64,0 -18.87,-0.69 -27.62,-2.17 -8.75,-1.47 -16.51,-3.34 -23.49,-5.6 -6.88,-2.16 -12.68,-4.42 -17.3,-6.78 -4.62,-2.36 -7.96,-4.52 -10.03,-6.58 -2.16,-2.07 -3.83,-5.21 -4.91,-9.54 -1.18,-4.22 -1.77,-10.61 -1.77,-19.07 0,-5.5 0.2,-9.92 0.59,-13.26 0.39,-3.35 0.98,-6.1 1.67,-8.06 0.79,-1.97 1.77,-3.35 2.95,-4.03 1.08,-0.69 2.55,-0.99 4.32,-0.99 2.07,0 5.21,1.18 9.34,3.64 4.13,2.46 9.24,5.11 15.43,7.96 6.1,2.95 13.27,5.7 21.43,8.16 8.16,2.55 17.49,3.83 27.81,3.83 6.49,0 12.39,-0.69 17.4,-2.06 5.11,-1.28 9.53,-3.25 13.27,-5.8 3.73,-2.46 6.58,-5.6 8.55,-9.53 1.87,-3.84 2.85,-8.26 2.85,-13.27 0,-5.8 -1.77,-10.72 -5.31,-14.84 -3.63,-4.13 -8.35,-7.77 -14.15,-10.82 -5.9,-3.04 -12.58,-5.89 -19.95,-8.65 -7.37,-2.65 -15.04,-5.6 -22.81,-8.94 -7.76,-3.24 -15.43,-6.98 -22.8,-11.2 -7.37,-4.23 -14.05,-9.34 -19.95,-15.53 -5.8,-6.1 -10.52,-13.57 -14.15,-22.12 -3.54,-8.65 -5.31,-19.07 -5.31,-31.16 0,-12.28 2.46,-23.49 7.27,-33.81 4.82,-10.22 11.7,-19.06 20.74,-26.34 9.14,-7.27 20.15,-12.97 33.12,-17 13.08,-4.03 27.62,-6 43.84,-6 8.16,0 15.92,0.59 23.59,1.68 7.57,1.17 14.54,2.65 20.64,4.32 6.19,1.77 11.4,3.54 15.63,5.6 4.22,1.97 7.27,3.74 9.14,5.11 1.86,1.48 3.14,2.85 3.93,4.33 0.69,1.47 1.28,3.14 1.67,5.21 0.39,1.96 0.79,4.52 1.08,7.47 0.3,2.95 0.39,6.68 0.39,11.1 0,5.21 -0.09,9.44 -0.39,12.68 -0.29,3.25 -0.79,5.9 -1.47,7.77 -0.69,1.96 -1.58,3.24 -2.76,3.93 -1.18,0.69 -2.55,0.98 -4.03,0.98 -1.76,0 -4.52,-0.98 -8.15,-3.05 -3.64,-1.96 -8.26,-4.12 -13.76,-6.38 -5.51,-2.27 -11.9,-4.43 -19.07,-6.39 -7.27,-2.07 -15.53,-3.05 -24.77,-3.05 -6.58,0 -12.29,0.69 -17.1,1.97 -4.82,1.37 -8.75,3.34 -11.89,5.79 -3.05,2.46 -5.41,5.41 -6.88,8.75 -1.58,3.34 -2.36,6.98 -2.36,10.72 0,5.99 1.86,11 5.5,15.03 3.64,4.03 8.45,7.57 14.45,10.62 5.9,3.05 12.78,5.99 20.34,8.65 7.57,2.65 15.34,5.6 23.1,8.75 7.77,3.14 15.53,6.88 23.1,11.1 7.57,4.23 14.45,9.44 20.34,15.53 6,6.19 10.82,13.47 14.45,22.02 3.64,8.55 5.51,18.67 5.51,30.37zm319.66 47.47c0,8.45 -0.49,14.94 -1.57,19.46 -1.08,4.52 -2.46,7.67 -4.23,9.44 -1.67,1.86 -4.22,3.53 -7.57,4.91 -3.44,1.47 -7.37,2.75 -11.89,3.74 -4.42,1.08 -9.34,1.86 -14.64,2.45 -5.31,0.59 -10.62,0.89 -16.02,0.89 -14.35,0 -26.84,-1.87 -37.45,-5.51 -10.52,-3.63 -19.27,-9.24 -26.24,-16.8 -6.88,-7.57 -12,-17.11 -15.24,-28.7 -3.24,-11.5 -4.91,-25.16 -4.91,-40.89l0 -131.61 -31.16 0c-3.64,0 -6.49,-2.26 -8.35,-6.78 -1.97,-4.52 -2.95,-12.09 -2.95,-22.7 0,-5.61 0.19,-10.32 0.68,-14.16 0.5,-3.83 1.28,-6.88 2.27,-9.14 0.88,-2.16 2.16,-3.73 3.63,-4.71 1.38,-0.99 3.15,-1.48 5.01,-1.48l30.87 0 0 -57.5c0,-1.86 0.49,-3.63 1.57,-5.21 1.08,-1.47 3.05,-2.75 5.8,-3.83 2.75,-1.08 6.58,-1.87 11.3,-2.36 4.72,-0.49 10.52,-0.69 17.5,-0.69 7.07,0 12.97,0.2 17.69,0.69 4.72,0.49 8.45,1.28 11.2,2.36 2.66,1.08 4.62,2.36 5.7,3.83 1.18,1.58 1.77,3.35 1.77,5.21l0 57.5 55.73 0c1.97,0 3.64,0.49 5.01,1.48 1.48,0.98 2.66,2.55 3.64,4.71 0.98,2.26 1.67,5.31 2.16,9.14 0.49,3.84 0.69,8.55 0.69,14.16 0,10.61 -0.98,18.18 -2.85,22.7 -1.97,4.52 -4.72,6.78 -8.35,6.78l-56.03 0 0 120.7c0,14.05 2.16,24.57 6.59,31.55 4.42,6.98 12.28,10.52 23.59,10.52 3.83,0 7.27,-0.3 10.32,-0.99 3.04,-0.68 5.8,-1.47 8.15,-2.36 2.46,-0.78 4.43,-1.57 6.1,-2.26 1.57,-0.68 3.14,-0.98 4.42,-0.98 1.18,0 2.26,0.3 3.34,0.98 0.99,0.69 1.87,1.97 2.46,4.03 0.49,1.97 1.08,4.72 1.57,8.16 0.49,3.54 0.69,7.86 0.69,13.27zm385.23 26.14c0,2.66 -0.98,4.72 -2.85,6.29 -1.97,1.58 -5.01,2.66 -9.14,3.35 -4.13,0.68 -10.22,0.98 -18.38,0.98 -8.65,0 -14.94,-0.3 -18.87,-0.98 -3.93,-0.69 -6.78,-1.77 -8.36,-3.35 -1.67,-1.57 -2.45,-3.63 -2.45,-6.29l0 -20.44c-10.62,11.3 -22.61,20.05 -36.17,26.34 -13.47,6.29 -28.51,9.44 -45.02,9.44 -13.56,0 -26.14,-1.77 -37.54,-5.31 -11.41,-3.54 -21.23,-8.85 -29.59,-15.82 -8.35,-7.08 -14.84,-15.73 -19.46,-26.05 -4.62,-10.42 -6.88,-22.51 -6.88,-36.27 0,-15.04 2.95,-28.01 8.75,-39.02 5.89,-11.1 14.64,-20.15 26.24,-27.42 11.6,-7.18 25.95,-12.48 43.25,-15.92 17.2,-3.44 37.25,-5.21 60.05,-5.21l25.06 0 0 -15.53c0,-8.06 -0.78,-15.14 -2.45,-21.23 -1.58,-6 -4.33,-11.11 -8.06,-15.14 -3.74,-4.03 -8.65,-6.98 -14.94,-8.94 -6.2,-1.87 -13.96,-2.85 -23.1,-2.85 -12.09,0 -22.9,1.37 -32.34,4.03 -9.53,2.65 -17.89,5.7 -25.16,8.94 -7.27,3.25 -13.37,6.29 -18.28,8.95 -4.91,2.65 -8.85,4.03 -11.89,4.03 -2.16,0 -4.03,-0.69 -5.61,-1.97 -1.67,-1.38 -3.04,-3.34 -4.02,-5.8 -1.09,-2.46 -1.87,-5.6 -2.46,-9.24 -0.59,-3.63 -0.89,-7.66 -0.89,-11.99 0,-5.99 0.49,-10.71 1.48,-14.15 0.88,-3.44 2.75,-6.49 5.4,-9.34 2.76,-2.75 7.38,-5.8 14.16,-9.14 6.68,-3.34 14.54,-6.49 23.59,-9.34 9.04,-2.95 18.87,-5.3 29.48,-7.07 10.71,-1.87 21.72,-2.76 33.03,-2.76 20.14,0 37.34,1.97 51.69,5.9 14.26,3.93 26.05,10.03 35.19,18.18 9.24,8.16 16.02,18.68 20.25,31.55 4.22,12.78 6.29,28.11 6.29,45.71l0 172.88zm-71.36 -110.27l-27.62 0c-11.69,0 -21.62,0.88 -29.88,2.55 -8.25,1.77 -14.93,4.33 -20.14,7.86 -5.21,3.44 -8.95,7.57 -11.31,12.49 -2.45,4.91 -3.63,10.51 -3.63,16.8 0,10.82 3.44,19.27 10.22,25.36 6.78,6.19 16.22,9.24 28.3,9.24 10.13,0 19.47,-2.55 28.02,-7.76 8.55,-5.21 17.2,-12.78 26.04,-22.81l0 -43.73zm410.29 84.13c0,8.45 -0.49,14.94 -1.57,19.46 -1.08,4.52 -2.46,7.67 -4.23,9.44 -1.67,1.86 -4.22,3.53 -7.57,4.91 -3.44,1.47 -7.37,2.75 -11.89,3.74 -4.42,1.08 -9.34,1.86 -14.64,2.45 -5.31,0.59 -10.62,0.89 -16.02,0.89 -14.35,0 -26.84,-1.87 -37.45,-5.51 -10.52,-3.63 -19.27,-9.24 -26.24,-16.8 -6.88,-7.57 -12,-17.11 -15.24,-28.7 -3.24,-11.5 -4.91,-25.16 -4.91,-40.89l0 -131.61 -31.16 0c-3.64,0 -6.49,-2.26 -8.35,-6.78 -1.97,-4.52 -2.95,-12.09 -2.95,-22.7 0,-5.61 0.19,-10.32 0.68,-14.16 0.5,-3.83 1.28,-6.88 2.27,-9.14 0.88,-2.16 2.16,-3.73 3.63,-4.71 1.38,-0.99 3.15,-1.48 5.01,-1.48l30.87 0 0 -57.5c0,-1.86 0.49,-3.63 1.57,-5.21 1.08,-1.47 3.05,-2.75 5.8,-3.83 2.75,-1.08 6.58,-1.87 11.3,-2.36 4.72,-0.49 10.52,-0.69 17.5,-0.69 7.07,0 12.97,0.2 17.69,0.69 4.72,0.49 8.45,1.28 11.2,2.36 2.66,1.08 4.62,2.36 5.7,3.83 1.18,1.58 1.77,3.35 1.77,5.21l0 57.5 55.73 0c1.97,0 3.64,0.49 5.01,1.48 1.48,0.98 2.66,2.55 3.64,4.71 0.98,2.26 1.67,5.31 2.16,9.14 0.49,3.84 0.69,8.55 0.69,14.16 0,10.61 -0.98,18.18 -2.85,22.7 -1.97,4.52 -4.72,6.78 -8.35,6.78l-56.03 0 0 120.7c0,14.05 2.16,24.57 6.59,31.55 4.42,6.98 12.28,10.52 23.59,10.52 3.83,0 7.27,-0.3 10.32,-0.99 3.04,-0.68 5.8,-1.47 8.15,-2.36 2.46,-0.78 4.43,-1.57 6.1,-2.26 1.57,-0.68 3.14,-0.98 4.42,-0.98 1.18,0 2.26,0.3 3.34,0.98 0.99,0.69 1.87,1.97 2.46,4.03 0.49,1.97 1.08,4.72 1.57,8.16 0.49,3.54 0.69,7.86 0.69,13.27zm402.13 -110.67c0,8.84 -1.97,15.33 -5.9,19.56 -3.93,4.22 -9.33,6.39 -16.31,6.39l-156.48 0c0,10.91 1.28,20.74 3.94,29.68 2.55,8.85 6.68,16.41 12.28,22.61 5.7,6.19 12.98,10.91 21.92,14.15 8.94,3.24 19.56,4.91 32.04,4.91 12.68,0 23.79,-0.88 33.42,-2.75 9.53,-1.87 17.89,-3.83 24.87,-6.09 6.97,-2.26 12.77,-4.23 17.39,-6.1 4.62,-1.86 8.36,-2.75 11.21,-2.75 1.77,0 3.24,0.3 4.32,0.98 1.18,0.69 2.16,1.87 2.95,3.64 0.69,1.67 1.28,4.13 1.57,7.27 0.3,3.15 0.4,7.18 0.4,11.9 0,4.22 -0.1,7.86 -0.3,10.81 -0.2,2.95 -0.49,5.5 -0.88,7.57 -0.4,2.16 -0.89,3.93 -1.67,5.3 -0.79,1.48 -1.77,2.85 -3.05,4.23 -1.28,1.28 -4.62,3.15 -10.22,5.5 -5.61,2.36 -12.68,4.62 -21.33,6.88 -8.65,2.26 -18.48,4.23 -29.59,5.9 -11.1,1.67 -22.99,2.56 -35.67,2.56 -22.9,0 -42.86,-2.85 -60.06,-8.65 -17.1,-5.7 -31.45,-14.45 -43.05,-26.15 -11.5,-11.69 -20.05,-26.53 -25.75,-44.32 -5.6,-17.89 -8.45,-38.83 -8.45,-62.81 0,-22.8 2.95,-43.34 8.94,-61.72 5.9,-18.28 14.55,-33.81 25.95,-46.59 11.3,-12.78 25.06,-22.51 41.28,-29.19 16.32,-6.78 34.6,-10.13 54.94,-10.13 21.53,0 39.91,3.15 55.14,9.54 15.34,6.29 27.82,15.13 37.65,26.34 9.73,11.2 17,24.57 21.62,39.9 4.62,15.34 6.88,32.04 6.88,50.13l0 11.5zm-70.18 -20.64c0.59,-20.35 -3.53,-36.37 -12.28,-47.96 -8.75,-11.7 -22.22,-17.5 -40.5,-17.5 -9.24,0 -17.29,1.77 -24.08,5.21 -6.88,3.44 -12.58,8.06 -17.1,13.96 -4.52,5.89 -7.96,12.77 -10.32,20.73 -2.46,8.06 -3.83,16.52 -4.23,25.56l108.51 0z"/>
  <g id="_1839886615264">
   <path class="fil2" d="M6555.4 7244.62c0,1.87 -0.59,3.54 -1.77,5.01 -1.08,1.48 -3.05,2.66 -5.9,3.64 -2.75,0.88 -6.49,1.67 -11.01,2.16 -4.62,0.49 -10.51,0.69 -17.59,0.69 -7.08,0 -12.97,-0.2 -17.59,-0.69 -4.52,-0.49 -8.26,-1.28 -11.01,-2.16 -2.85,-0.98 -4.82,-2.16 -5.9,-3.64 -1.18,-1.47 -1.77,-3.14 -1.77,-5.01l0 -256.53c0,-1.87 0.59,-3.54 1.77,-5.01 1.08,-1.48 3.05,-2.75 5.9,-3.74 2.75,-1.08 6.49,-1.86 11.01,-2.45 4.62,-0.59 10.51,-0.89 17.59,-0.89 7.08,0 12.97,0.3 17.59,0.89 4.52,0.59 8.26,1.37 11.01,2.45 2.85,0.99 4.82,2.26 5.9,3.74 1.18,1.47 1.77,3.14 1.77,5.01l0 256.53zm5.9 -344.4c0,14.65 -2.95,24.67 -8.95,30.28 -5.99,5.6 -17,8.35 -33.22,8.35 -16.32,0 -27.42,-2.65 -33.02,-8.06 -5.7,-5.41 -8.55,-15.14 -8.55,-29.09 0,-14.65 2.94,-24.77 8.84,-30.47 5.8,-5.6 16.91,-8.45 33.32,-8.45 16.12,0 27.13,2.75 32.93,8.25 5.8,5.41 8.65,15.14 8.65,29.19zm431.71 344.4c0,1.87 -0.59,3.54 -1.77,5.01 -1.08,1.48 -3.05,2.66 -5.7,3.64 -2.76,0.88 -6.49,1.67 -11.21,2.16 -4.72,0.49 -10.51,0.69 -17.4,0.69 -7.17,0 -13.07,-0.2 -17.78,-0.69 -4.72,-0.49 -8.46,-1.28 -11.21,-2.16 -2.65,-0.98 -4.62,-2.16 -5.7,-3.64 -1.18,-1.47 -1.77,-3.14 -1.77,-5.01l0 -146.55c0,-12.48 -0.88,-22.31 -2.75,-29.38 -1.77,-7.18 -4.42,-13.27 -7.86,-18.28 -3.44,-5.12 -7.97,-9.05 -13.37,-11.9 -5.51,-2.75 -11.8,-4.13 -19.07,-4.13 -9.24,0 -18.48,3.35 -27.91,10.13 -9.34,6.68 -19.17,16.51 -29.29,29.29l0 170.82c0,1.87 -0.59,3.54 -1.77,5.01 -1.08,1.48 -3.05,2.66 -5.9,3.64 -2.75,0.88 -6.49,1.67 -11.01,2.16 -4.62,0.49 -10.51,0.69 -17.59,0.69 -7.08,0 -12.97,-0.2 -17.59,-0.69 -4.52,-0.49 -8.26,-1.28 -11.01,-2.16 -2.85,-0.98 -4.82,-2.16 -5.9,-3.64 -1.18,-1.47 -1.77,-3.14 -1.77,-5.01l0 -257.12c0,-1.87 0.49,-3.54 1.48,-5.01 0.88,-1.48 2.65,-2.65 5.11,-3.64 2.55,-0.88 5.7,-1.67 9.63,-2.16 3.93,-0.49 8.94,-0.69 14.84,-0.69 6.19,0 11.21,0.2 15.24,0.69 4.03,0.49 7.17,1.28 9.43,2.16 2.16,0.99 3.74,2.16 4.72,3.64 0.98,1.47 1.47,3.14 1.47,5.01l0 29.68c14.16,-15.33 28.6,-26.73 43.35,-34.4 14.64,-7.66 29.98,-11.5 45.9,-11.5 17.49,0 32.24,2.85 44.23,8.65 11.99,5.7 21.62,13.57 29.09,23.49 7.37,9.83 12.68,21.43 15.92,34.7 3.25,13.27 4.92,29.19 4.92,47.77l0 158.73zm422.37 -239.13c0,9.24 -1.08,16.02 -3.24,20.44 -2.07,4.42 -4.62,6.69 -7.77,6.69l-30.17 0c4.23,4.61 7.17,9.82 9.04,15.62 1.87,5.9 2.75,11.99 2.75,18.28 0,14.94 -2.55,28.21 -7.47,39.81 -5.01,11.6 -12.18,21.43 -21.52,29.39 -9.24,7.96 -20.54,13.95 -33.62,18.08 -13.17,4.13 -27.81,6.19 -43.93,6.19 -8.26,0 -16.12,-0.98 -23.59,-3.04 -7.57,-1.97 -13.27,-4.33 -17.3,-6.98 -2.36,2.46 -4.42,5.41 -6.19,8.94 -1.87,3.44 -2.75,7.28 -2.75,11.5 0,5.61 2.46,10.22 7.37,13.76 4.82,3.54 11.7,5.51 20.54,5.9l62.51 2.26c14.55,0.59 27.62,2.65 39.02,6.19 11.4,3.54 21.04,8.55 28.8,15.04 7.77,6.39 13.76,14.15 17.89,23.1 4.13,9.04 6.19,19.36 6.19,30.86 0,12.68 -2.85,24.57 -8.35,35.78 -5.61,11.3 -13.96,21.03 -25.07,29.29 -11.2,8.25 -25.16,14.74 -41.96,19.56 -16.81,4.81 -36.37,7.17 -58.88,7.17 -21.82,0 -40.49,-1.77 -56.02,-5.21 -15.43,-3.44 -28.11,-8.26 -37.94,-14.35 -9.93,-6.19 -17.1,-13.46 -21.62,-22.02 -4.52,-8.55 -6.79,-17.88 -6.79,-28.11 0,-6.29 0.79,-12.38 2.46,-18.08 1.67,-5.8 4.03,-11.3 7.18,-16.61 3.14,-5.21 7.07,-10.32 11.69,-15.04 4.62,-4.81 9.83,-9.43 15.83,-13.86 -8.26,-4.42 -14.65,-10.41 -19.17,-17.98 -4.52,-7.57 -6.78,-15.93 -6.78,-24.97 0,-11.3 2.65,-21.62 7.76,-30.96 5.21,-9.34 11.99,-17.69 20.25,-25.26 -6.78,-6.68 -12.09,-14.74 -16.12,-24.08 -4.03,-9.43 -6.09,-21.13 -6.09,-35.09 0,-15.03 2.65,-28.4 7.96,-40.2 5.21,-11.79 12.58,-21.72 22.02,-29.87 9.33,-8.16 20.64,-14.35 33.61,-18.68 13.07,-4.32 27.52,-6.49 43.25,-6.49 8.06,0 15.82,0.5 23.19,1.38 7.37,0.98 14.25,2.26 20.54,3.93l81.48 0c3.25,0 5.9,2.16 7.96,6.39 1.97,4.23 3.05,11.3 3.05,21.33zm-93.08 60.84c0,-13.76 -3.83,-24.57 -11.5,-32.24 -7.66,-7.67 -18.47,-11.5 -32.53,-11.5 -7.08,0 -13.37,1.18 -18.67,3.64 -5.41,2.36 -9.83,5.6 -13.47,9.73 -3.54,4.13 -6.19,8.94 -7.86,14.45 -1.77,5.5 -2.56,11.2 -2.56,17.1 0,13.07 3.84,23.39 11.5,30.96 7.67,7.57 18.28,11.4 31.95,11.4 7.27,0 13.66,-1.18 18.97,-3.44 5.4,-2.36 9.82,-5.51 13.36,-9.54 3.64,-4.02 6.29,-8.64 8.16,-13.95 1.77,-5.31 2.65,-10.81 2.65,-16.61zm17.01 204.93c0,-8.56 -3.44,-15.24 -10.32,-19.76 -6.98,-4.62 -16.42,-7.18 -28.51,-7.47l-51.6 -1.47c-4.91,3.63 -8.94,7.17 -11.89,10.51 -3.05,3.34 -5.4,6.49 -7.27,9.63 -1.77,3.05 -2.95,6 -3.54,8.85 -0.59,2.85 -0.89,5.9 -0.89,8.94 0,9.54 4.82,16.81 14.55,21.82 9.73,5.02 23.39,7.47 40.99,7.47 11,0 20.24,-1.08 27.71,-3.34 7.47,-2.16 13.47,-5.11 18.09,-8.75 4.62,-3.63 7.86,-7.66 9.83,-12.18 1.86,-4.52 2.85,-9.24 2.85,-14.25zm833.58 -45.12c2.26,6.88 3.74,12.39 4.33,16.42 0.59,4.03 -0.2,7.07 -2.27,9.14 -2.16,1.96 -5.89,3.24 -11.3,3.73 -5.31,0.49 -12.78,0.69 -22.11,0.69 -9.83,0 -17.5,-0.1 -22.9,-0.39 -5.51,-0.3 -9.64,-0.89 -12.58,-1.77 -2.85,-0.89 -4.82,-2.07 -6,-3.64 -1.18,-1.47 -2.16,-3.54 -2.85,-6l-24.47 -74.89 -140.55 0 -23.49 72.83c-0.79,2.75 -1.77,5.01 -3.05,6.78 -1.18,1.87 -3.24,3.25 -6,4.33 -2.75,1.08 -6.68,1.77 -11.79,2.16 -5.11,0.39 -11.79,0.59 -20.05,0.59 -8.85,0 -15.73,-0.3 -20.74,-0.89 -5.01,-0.59 -8.45,-1.96 -10.32,-4.12 -1.97,-2.26 -2.65,-5.41 -2.06,-9.44 0.59,-4.03 2.06,-9.34 4.32,-16.12l114.8 -330.73c1.08,-3.25 2.46,-5.9 4.03,-7.87 1.47,-2.06 3.93,-3.53 7.27,-4.62 3.44,-1.08 8.06,-1.76 14.06,-2.06 5.89,-0.29 13.76,-0.39 23.59,-0.39 11.3,0 20.34,0.1 27.03,0.39 6.78,0.3 11.99,0.98 15.72,2.06 3.74,1.09 6.39,2.66 8.06,4.72 1.57,2.17 3.05,5.02 4.13,8.65l115.19 330.44zm-171.02 -273.63l-0.29 0 -51.9 158.54 104.58 0 -52.39 -158.54zm570.3 52.98c0,9.24 -1.08,16.02 -3.24,20.44 -2.07,4.42 -4.62,6.69 -7.77,6.69l-30.17 0c4.23,4.61 7.17,9.82 9.04,15.62 1.87,5.9 2.75,11.99 2.75,18.28 0,14.94 -2.55,28.21 -7.47,39.81 -5.01,11.6 -12.18,21.43 -21.52,29.39 -9.24,7.96 -20.54,13.95 -33.62,18.08 -13.17,4.13 -27.81,6.19 -43.93,6.19 -8.26,0 -16.12,-0.98 -23.59,-3.04 -7.57,-1.97 -13.27,-4.33 -17.3,-6.98 -2.36,2.46 -4.42,5.41 -6.19,8.94 -1.87,3.44 -2.75,7.28 -2.75,11.5 0,5.61 2.46,10.22 7.37,13.76 4.82,3.54 11.7,5.51 20.54,5.9l62.51 2.26c14.55,0.59 27.62,2.65 39.02,6.19 11.4,3.54 21.04,8.55 28.8,15.04 7.77,6.39 13.76,14.15 17.89,23.1 4.13,9.04 6.19,19.36 6.19,30.86 0,12.68 -2.85,24.57 -8.35,35.78 -5.61,11.3 -13.96,21.03 -25.07,29.29 -11.2,8.25 -25.16,14.74 -41.96,19.56 -16.81,4.81 -36.37,7.17 -58.88,7.17 -21.82,0 -40.49,-1.77 -56.02,-5.21 -15.43,-3.44 -28.11,-8.26 -37.94,-14.35 -9.93,-6.19 -17.1,-13.46 -21.62,-22.02 -4.52,-8.55 -6.79,-17.88 -6.79,-28.11 0,-6.29 0.79,-12.38 2.46,-18.08 1.67,-5.8 4.03,-11.3 7.18,-16.61 3.14,-5.21 7.07,-10.32 11.69,-15.04 4.62,-4.81 9.83,-9.43 15.83,-13.86 -8.26,-4.42 -14.65,-10.41 -19.17,-17.98 -4.52,-7.57 -6.78,-15.93 -6.78,-24.97 0,-11.3 2.65,-21.62 7.76,-30.96 5.21,-9.34 11.99,-17.69 20.25,-25.26 -6.78,-6.68 -12.09,-14.74 -16.12,-24.08 -4.03,-9.43 -6.09,-21.13 -6.09,-35.09 0,-15.03 2.65,-28.4 7.96,-40.2 5.21,-11.79 12.58,-21.72 22.02,-29.87 9.33,-8.16 20.64,-14.35 33.61,-18.68 13.07,-4.32 27.52,-6.49 43.25,-6.49 8.06,0 15.82,0.5 23.19,1.38 7.37,0.98 14.25,2.26 20.54,3.93l81.48 0c3.25,0 5.9,2.16 7.96,6.39 1.97,4.23 3.05,11.3 3.05,21.33zm-93.08 60.84c0,-13.76 -3.83,-24.57 -11.5,-32.24 -7.66,-7.67 -18.47,-11.5 -32.53,-11.5 -7.08,0 -13.37,1.18 -18.67,3.64 -5.41,2.36 -9.83,5.6 -13.47,9.73 -3.54,4.13 -6.19,8.94 -7.86,14.45 -1.77,5.5 -2.56,11.2 -2.56,17.1 0,13.07 3.84,23.39 11.5,30.96 7.67,7.57 18.28,11.4 31.95,11.4 7.27,0 13.66,-1.18 18.97,-3.44 5.4,-2.36 9.82,-5.51 13.36,-9.54 3.64,-4.02 6.29,-8.64 8.16,-13.95 1.77,-5.31 2.65,-10.81 2.65,-16.61zm17.01 204.93c0,-8.56 -3.44,-15.24 -10.32,-19.76 -6.98,-4.62 -16.42,-7.18 -28.51,-7.47l-51.6 -1.47c-4.91,3.63 -8.94,7.17 -11.89,10.51 -3.05,3.34 -5.4,6.49 -7.27,9.63 -1.77,3.05 -2.95,6 -3.54,8.85 -0.59,2.85 -0.89,5.9 -0.89,8.94 0,9.54 4.82,16.81 14.55,21.82 9.73,5.02 23.39,7.47 40.99,7.47 11,0 20.24,-1.08 27.71,-3.34 7.47,-2.16 13.47,-5.11 18.09,-8.75 4.62,-3.63 7.86,-7.66 9.83,-12.18 1.86,-4.52 2.85,-9.24 2.85,-14.25zm475.06 -162.57c0,8.84 -1.97,15.33 -5.9,19.56 -3.93,4.22 -9.33,6.39 -16.31,6.39l-156.48 0c0,10.91 1.28,20.74 3.94,29.68 2.55,8.85 6.68,16.41 12.28,22.61 5.7,6.19 12.98,10.91 21.92,14.15 8.94,3.24 19.56,4.91 32.04,4.91 12.68,0 23.79,-0.88 33.42,-2.75 9.53,-1.87 17.89,-3.83 24.87,-6.09 6.97,-2.26 12.77,-4.23 17.39,-6.1 4.62,-1.86 8.36,-2.75 11.21,-2.75 1.77,0 3.24,0.3 4.32,0.98 1.18,0.69 2.16,1.87 2.95,3.64 0.69,1.67 1.28,4.13 1.57,7.27 0.3,3.15 0.4,7.18 0.4,11.9 0,4.22 -0.1,7.86 -0.3,10.81 -0.2,2.95 -0.49,5.5 -0.88,7.57 -0.4,2.16 -0.89,3.93 -1.67,5.3 -0.79,1.48 -1.77,2.85 -3.05,4.23 -1.28,1.28 -4.62,3.15 -10.22,5.5 -5.61,2.36 -12.68,4.62 -21.33,6.88 -8.65,2.26 -18.48,4.23 -29.59,5.9 -11.1,1.67 -22.99,2.56 -35.67,2.56 -22.9,0 -42.86,-2.85 -60.06,-8.65 -17.1,-5.7 -31.45,-14.45 -43.05,-26.15 -11.5,-11.69 -20.05,-26.53 -25.75,-44.32 -5.6,-17.89 -8.45,-38.83 -8.45,-62.81 0,-22.8 2.95,-43.34 8.94,-61.72 5.9,-18.28 14.55,-33.81 25.95,-46.59 11.3,-12.78 25.06,-22.51 41.28,-29.19 16.32,-6.78 34.6,-10.13 54.94,-10.13 21.53,0 39.91,3.15 55.14,9.54 15.34,6.29 27.82,15.13 37.65,26.34 9.73,11.2 17,24.57 21.62,39.9 4.62,15.34 6.88,32.04 6.88,50.13l0 11.5zm-70.18 -20.64c0.59,-20.35 -3.53,-36.37 -12.28,-47.96 -8.75,-11.7 -22.22,-17.5 -40.5,-17.5 -9.24,0 -17.29,1.77 -24.08,5.21 -6.88,3.44 -12.58,8.06 -17.1,13.96 -4.52,5.89 -7.96,12.77 -10.32,20.73 -2.46,8.06 -3.83,16.52 -4.23,25.56l108.51 0zm495.31 156.57c0,1.87 -0.59,3.54 -1.77,5.01 -1.08,1.48 -3.05,2.66 -5.7,3.64 -2.76,0.88 -6.49,1.67 -11.21,2.16 -4.72,0.49 -10.51,0.69 -17.4,0.69 -7.17,0 -13.07,-0.2 -17.78,-0.69 -4.72,-0.49 -8.46,-1.28 -11.21,-2.16 -2.65,-0.98 -4.62,-2.16 -5.7,-3.64 -1.18,-1.47 -1.77,-3.14 -1.77,-5.01l0 -146.55c0,-12.48 -0.88,-22.31 -2.75,-29.38 -1.77,-7.18 -4.42,-13.27 -7.86,-18.28 -3.44,-5.12 -7.97,-9.05 -13.37,-11.9 -5.51,-2.75 -11.8,-4.13 -19.07,-4.13 -9.24,0 -18.48,3.35 -27.91,10.13 -9.34,6.68 -19.17,16.51 -29.29,29.29l0 170.82c0,1.87 -0.59,3.54 -1.77,5.01 -1.08,1.48 -3.05,2.66 -5.9,3.64 -2.75,0.88 -6.49,1.67 -11.01,2.16 -4.62,0.49 -10.51,0.69 -17.59,0.69 -7.08,0 -12.97,-0.2 -17.59,-0.69 -4.52,-0.49 -8.26,-1.28 -11.01,-2.16 -2.85,-0.98 -4.82,-2.16 -5.9,-3.64 -1.18,-1.47 -1.77,-3.14 -1.77,-5.01l0 -257.12c0,-1.87 0.49,-3.54 1.48,-5.01 0.88,-1.48 2.65,-2.65 5.11,-3.64 2.55,-0.88 5.7,-1.67 9.63,-2.16 3.93,-0.49 8.94,-0.69 14.84,-0.69 6.19,0 11.21,0.2 15.24,0.69 4.03,0.49 7.17,1.28 9.43,2.16 2.16,0.99 3.74,2.16 4.72,3.64 0.98,1.47 1.47,3.14 1.47,5.01l0 29.68c14.16,-15.33 28.6,-26.73 43.35,-34.4 14.64,-7.66 29.98,-11.5 45.9,-11.5 17.49,0 32.24,2.85 44.23,8.65 11.99,5.7 21.62,13.57 29.09,23.49 7.37,9.83 12.68,21.43 15.92,34.7 3.25,13.27 4.92,29.19 4.92,47.77l0 158.73zm385.12 -40.99c0,5.02 -0.1,9.14 -0.39,12.58 -0.3,3.35 -0.69,6.2 -1.18,8.56 -0.49,2.26 -1.08,4.12 -1.77,5.6 -0.69,1.47 -2.16,3.24 -4.42,5.5 -2.36,2.16 -6.29,4.92 -11.8,8.06 -5.6,3.15 -11.89,6 -19.07,8.55 -7.07,2.46 -14.74,4.52 -23.09,6 -8.36,1.57 -17.01,2.36 -25.85,2.36 -19.76,0 -37.25,-3.05 -52.49,-9.24 -15.33,-6.1 -28.11,-15.24 -38.53,-27.23 -10.32,-11.99 -18.18,-26.73 -23.39,-44.03 -5.31,-17.3 -7.96,-37.05 -7.96,-59.37 0,-25.75 3.24,-48.06 9.63,-66.73 6.49,-18.77 15.43,-34.3 26.93,-46.59 11.5,-12.29 25.16,-21.43 40.89,-27.42 15.73,-6 33.02,-8.95 51.9,-8.95 7.66,0 15.13,0.69 22.6,2.07 7.37,1.28 14.25,3.14 20.74,5.4 6.39,2.36 12.19,4.92 17.2,7.77 5.11,2.95 8.75,5.4 10.81,7.57 2.16,2.06 3.64,3.83 4.52,5.3 0.79,1.48 1.48,3.35 1.97,5.61 0.49,2.36 0.88,5.21 1.18,8.55 0.29,3.44 0.39,7.47 0.39,12.28 0,11.21 -0.88,19.07 -2.85,23.59 -1.96,4.52 -4.42,6.78 -7.47,6.78 -3.24,0 -6.78,-1.37 -10.42,-4.03 -3.63,-2.65 -7.96,-5.7 -12.97,-8.94 -4.92,-3.24 -10.91,-6.29 -17.79,-8.94 -6.88,-2.66 -15.14,-4.03 -24.77,-4.03 -18.87,0 -33.22,7.27 -43.25,21.72 -9.92,14.54 -14.94,35.77 -14.94,63.79 0,13.76 1.28,25.94 3.74,36.56 2.56,10.52 6.19,19.36 11.11,26.44 4.91,7.07 11,12.48 18.38,16.02 7.47,3.54 16.02,5.31 25.85,5.31 9.92,0 18.57,-1.48 25.75,-4.53 7.17,-2.94 13.46,-6.29 18.87,-9.92 5.3,-3.64 9.83,-6.98 13.56,-9.93 3.64,-3.05 6.68,-4.52 9.14,-4.52 1.77,0 3.15,0.49 4.33,1.47 1.18,0.99 2.06,2.76 2.75,5.31 0.69,2.65 1.18,6 1.57,10.03 0.39,4.03 0.59,9.24 0.59,15.62zm321.24 50.72l-31.15 90.82c-1.77,4.81 -6.39,8.25 -14.06,10.42 -7.66,2.06 -18.87,3.14 -33.61,3.14 -7.67,0 -13.86,-0.29 -18.38,-0.98 -4.62,-0.69 -8.06,-1.77 -10.42,-3.34 -2.26,-1.58 -3.54,-3.44 -3.73,-5.7 -0.2,-2.36 0.39,-5.12 1.76,-8.36l34.21 -86c-2.46,-1.18 -4.72,-2.95 -6.69,-5.31 -2.06,-2.45 -3.53,-5.01 -4.52,-7.66l-88.16 -236.28c-2.46,-6.69 -3.73,-11.9 -3.73,-15.44 0,-3.53 1.17,-6.29 3.44,-8.35 2.26,-1.97 6.19,-3.34 11.59,-4.13 5.51,-0.78 12.68,-1.18 21.72,-1.18 8.16,0 14.65,0.1 19.47,0.4 4.81,0.29 8.55,1.08 11.2,2.16 2.65,1.18 4.72,2.95 6,5.4 1.37,2.36 2.65,5.8 4.03,10.23l60.44 172 0.89 0 54.84 -175.44c1.18,-5.02 2.65,-8.36 4.52,-10.03 1.77,-1.57 4.82,-2.75 9.04,-3.54 4.23,-0.78 11.7,-1.18 22.22,-1.18 8.35,0 15.23,0.4 20.64,1.18 5.5,0.79 9.53,2.16 12.18,4.33 2.56,2.06 3.84,4.91 3.84,8.45 0,3.54 -0.69,7.76 -2.26,12.58l-85.32 251.81z"/>
   <path class="fil2" d="M4399.05 7237.69c0,1.87 -0.49,3.64 -1.57,5.21 -1.08,1.47 -3.04,2.75 -5.8,3.73 -2.75,0.89 -6.48,1.67 -11.1,2.26 -4.62,0.59 -10.52,0.89 -17.6,0.89 -6.97,0 -12.77,-0.3 -17.39,-0.89 -4.62,-0.59 -8.26,-1.37 -11.01,-2.26 -2.66,-0.98 -4.62,-2.26 -5.7,-3.73 -1.18,-1.57 -1.77,-3.34 -1.77,-5.21l0 -303.41 -0.59 0 -107.62 303.12c-0.79,2.45 -1.97,4.52 -3.74,6.19 -1.77,1.67 -4.03,2.95 -7.08,3.93 -2.94,0.88 -6.78,1.57 -11.3,1.87 -4.62,0.29 -10.22,0.39 -16.71,0.39 -6.58,0 -12.09,-0.2 -16.71,-0.69 -4.62,-0.49 -8.45,-1.28 -11.4,-2.36 -2.95,-1.08 -5.31,-2.36 -7.07,-3.83 -1.68,-1.57 -2.86,-3.44 -3.44,-5.5l-103.89 -303.12 -0.59 0 0 303.41c0,1.87 -0.49,3.64 -1.58,5.21 -1.08,1.47 -3.04,2.75 -5.89,3.73 -2.95,0.89 -6.69,1.67 -11.21,2.26 -4.52,0.59 -10.32,0.89 -17.39,0.89 -6.98,0 -12.78,-0.3 -17.4,-0.89 -4.62,-0.59 -8.36,-1.37 -11.11,-2.26 -2.75,-0.98 -4.72,-2.26 -5.8,-3.73 -1.08,-1.57 -1.57,-3.34 -1.57,-5.21l0 -332.11c0,-9.83 2.56,-17.3 7.77,-22.51 5.2,-5.21 12.08,-7.76 20.83,-7.76l49.54 0c8.84,0 16.51,0.68 22.8,2.16 6.39,1.47 11.89,3.83 16.51,7.17 4.52,3.35 8.46,7.77 11.5,13.27 3.05,5.51 5.8,12.29 8.06,20.35l80.3 222.03 1.18 0 83.15 -221.54c2.46,-8.06 5.21,-14.84 8.16,-20.44 3.05,-5.51 6.49,-10.03 10.42,-13.47 3.93,-3.44 8.65,-5.9 13.96,-7.37 5.4,-1.48 11.69,-2.16 18.77,-2.16l51.11 0c5.21,0 9.63,0.68 13.36,2.06 3.74,1.28 6.88,3.24 9.24,5.9 2.46,2.55 4.23,5.7 5.51,9.43 1.27,3.74 1.86,8.06 1.86,12.88l0 332.11zm416 1.47c0,2.66 -0.98,4.72 -2.85,6.29 -1.97,1.58 -5.01,2.66 -9.14,3.35 -4.13,0.68 -10.22,0.98 -18.38,0.98 -8.65,0 -14.94,-0.3 -18.87,-0.98 -3.93,-0.69 -6.78,-1.77 -8.36,-3.35 -1.67,-1.57 -2.45,-3.63 -2.45,-6.29l0 -20.44c-10.62,11.3 -22.61,20.05 -36.17,26.34 -13.47,6.29 -28.51,9.44 -45.02,9.44 -13.56,0 -26.14,-1.77 -37.54,-5.31 -11.41,-3.54 -21.23,-8.85 -29.59,-15.82 -8.35,-7.08 -14.84,-15.73 -19.46,-26.05 -4.62,-10.42 -6.88,-22.51 -6.88,-36.27 0,-15.04 2.95,-28.01 8.75,-39.02 5.89,-11.1 14.64,-20.15 26.24,-27.42 11.6,-7.18 25.95,-12.48 43.25,-15.92 17.2,-3.44 37.25,-5.21 60.05,-5.21l25.06 0 0 -15.53c0,-8.06 -0.78,-15.14 -2.45,-21.23 -1.58,-6 -4.33,-11.11 -8.06,-15.14 -3.74,-4.03 -8.65,-6.98 -14.94,-8.94 -6.2,-1.87 -13.96,-2.85 -23.1,-2.85 -12.09,0 -22.9,1.37 -32.34,4.03 -9.53,2.65 -17.89,5.7 -25.16,8.94 -7.27,3.25 -13.37,6.29 -18.28,8.95 -4.91,2.65 -8.85,4.03 -11.89,4.03 -2.16,0 -4.03,-0.69 -5.61,-1.97 -1.67,-1.38 -3.04,-3.34 -4.02,-5.8 -1.09,-2.46 -1.87,-5.6 -2.46,-9.24 -0.59,-3.63 -0.89,-7.66 -0.89,-11.99 0,-5.99 0.49,-10.71 1.48,-14.15 0.88,-3.44 2.75,-6.49 5.4,-9.34 2.76,-2.75 7.38,-5.8 14.16,-9.14 6.68,-3.34 14.54,-6.49 23.59,-9.34 9.04,-2.95 18.87,-5.3 29.48,-7.07 10.71,-1.87 21.72,-2.76 33.03,-2.76 20.14,0 37.34,1.97 51.69,5.9 14.26,3.93 26.05,10.03 35.19,18.18 9.24,8.16 16.02,18.68 20.25,31.55 4.22,12.78 6.29,28.11 6.29,45.71l0 172.88zm-71.36 -110.27l-27.62 0c-11.69,0 -21.62,0.88 -29.88,2.55 -8.25,1.77 -14.93,4.33 -20.14,7.86 -5.21,3.44 -8.95,7.57 -11.31,12.49 -2.45,4.91 -3.63,10.51 -3.63,16.8 0,10.82 3.44,19.27 10.22,25.36 6.78,6.19 16.22,9.24 28.3,9.24 10.13,0 19.47,-2.55 28.02,-7.76 8.55,-5.21 17.2,-12.78 26.04,-22.81l0 -43.73zm428.77 -123.75c0,6.88 -0.19,12.58 -0.59,17.01 -0.39,4.42 -0.98,7.86 -1.67,10.32 -0.78,2.45 -1.86,4.22 -3.04,5.21 -1.28,0.98 -2.85,1.37 -4.82,1.37 -1.47,0 -3.24,-0.29 -5.21,-0.98 -1.87,-0.69 -4.03,-1.38 -6.49,-2.16 -2.35,-0.79 -5.01,-1.48 -7.86,-2.16 -2.95,-0.69 -6.09,-0.99 -9.53,-0.99 -4.03,0 -8.06,0.79 -12.09,2.46 -4.03,1.67 -8.26,4.13 -12.58,7.67 -4.33,3.44 -8.85,8.06 -13.57,13.76 -4.71,5.79 -9.73,12.87 -15.13,21.32l0 160.31c0,1.87 -0.59,3.54 -1.77,5.01 -1.08,1.48 -3.05,2.66 -5.9,3.64 -2.75,0.88 -6.49,1.67 -11.01,2.16 -4.62,0.49 -10.51,0.69 -17.59,0.69 -7.08,0 -12.97,-0.2 -17.59,-0.69 -4.52,-0.49 -8.26,-1.28 -11.01,-2.16 -2.85,-0.98 -4.82,-2.16 -5.9,-3.64 -1.18,-1.47 -1.77,-3.14 -1.77,-5.01l0 -257.12c0,-1.87 0.49,-3.54 1.48,-5.01 0.88,-1.48 2.65,-2.65 5.11,-3.64 2.55,-0.88 5.7,-1.67 9.63,-2.16 3.93,-0.49 8.94,-0.69 14.84,-0.69 6.19,0 11.21,0.2 15.24,0.69 4.03,0.49 7.17,1.28 9.43,2.16 2.16,0.99 3.74,2.16 4.72,3.64 0.98,1.47 1.47,3.14 1.47,5.01l0 32.04c6.69,-9.63 13.08,-17.49 18.97,-23.68 6,-6.2 11.7,-11.21 17.01,-14.85 5.4,-3.63 10.81,-6.19 16.21,-7.56 5.31,-1.48 10.72,-2.17 16.12,-2.17 2.46,0 5.21,0.1 8.06,0.4 2.85,0.29 5.9,0.78 8.95,1.47 3.04,0.69 5.79,1.48 8.06,2.26 2.35,0.89 4.03,1.77 5.11,2.75 0.98,0.99 1.77,2.07 2.26,3.15 0.49,1.18 0.88,2.75 1.27,4.82 0.4,1.96 0.69,5.01 0.89,9.04 0.2,4.03 0.29,9.43 0.29,16.31zm403.32 233.43c0,1.87 -0.49,3.54 -1.57,5.02 -1.08,1.47 -2.95,2.55 -5.8,3.44 -2.75,0.88 -6.59,1.57 -11.4,2.06 -4.82,0.49 -11.01,0.69 -18.78,0.69 -7.86,0 -14.25,-0.2 -19.16,-0.59 -4.92,-0.39 -8.95,-0.98 -12.09,-1.87 -3.15,-0.88 -5.6,-2.06 -7.37,-3.63 -1.77,-1.48 -3.25,-3.54 -4.62,-6l-85.51 -135.44 0 136.03c0,1.87 -0.59,3.54 -1.77,5.01 -1.08,1.48 -3.05,2.66 -5.9,3.64 -2.75,0.88 -6.49,1.67 -11.01,2.16 -4.62,0.49 -10.51,0.69 -17.59,0.69 -7.08,0 -12.97,-0.2 -17.59,-0.69 -4.52,-0.49 -8.26,-1.28 -11.01,-2.16 -2.85,-0.98 -4.82,-2.16 -5.9,-3.64 -1.18,-1.47 -1.77,-3.14 -1.77,-5.01l0 -378.9c0,-1.96 0.59,-3.63 1.77,-5.2 1.08,-1.48 3.05,-2.85 5.9,-3.84 2.75,-1.08 6.49,-1.87 11.01,-2.46 4.62,-0.58 10.51,-0.88 17.59,-0.88 7.08,0 12.97,0.3 17.59,0.88 4.52,0.59 8.26,1.38 11.01,2.46 2.85,0.99 4.82,2.36 5.9,3.84 1.18,1.57 1.77,3.24 1.77,5.2l0 225.57 76.07 -102.31c1.57,-2.36 3.25,-4.33 5.21,-6.1 1.87,-1.67 4.42,-3.04 7.57,-4.03 3.14,-0.88 7.08,-1.67 11.79,-2.16 4.72,-0.49 10.72,-0.69 17.99,-0.69 7.08,0 13.07,0.2 17.99,0.69 4.81,0.49 8.74,1.28 11.79,2.16 2.95,0.99 5.01,2.16 6.09,3.64 1.18,1.47 1.77,3.24 1.77,5.31 0,2.85 -0.68,5.99 -2.16,9.24 -1.47,3.24 -3.63,6.68 -6.49,10.41l-75.09 85.32 87.18 134.55c2.26,3.83 3.94,7.18 5.02,9.93 1.08,2.75 1.57,5.31 1.57,7.66zm385.13 -136.22c0,8.84 -1.97,15.33 -5.9,19.56 -3.93,4.22 -9.33,6.39 -16.31,6.39l-156.48 0c0,10.91 1.28,20.74 3.94,29.68 2.55,8.85 6.68,16.41 12.28,22.61 5.7,6.19 12.98,10.91 21.92,14.15 8.94,3.24 19.56,4.91 32.04,4.91 12.68,0 23.79,-0.88 33.42,-2.75 9.53,-1.87 17.89,-3.83 24.87,-6.09 6.97,-2.26 12.77,-4.23 17.39,-6.1 4.62,-1.86 8.36,-2.75 11.21,-2.75 1.77,0 3.24,0.3 4.32,0.98 1.18,0.69 2.16,1.87 2.95,3.64 0.69,1.67 1.28,4.13 1.57,7.27 0.3,3.15 0.4,7.18 0.4,11.9 0,4.22 -0.1,7.86 -0.3,10.81 -0.2,2.95 -0.49,5.5 -0.88,7.57 -0.4,2.16 -0.89,3.93 -1.67,5.3 -0.79,1.48 -1.77,2.85 -3.05,4.23 -1.28,1.28 -4.62,3.15 -10.22,5.5 -5.61,2.36 -12.68,4.62 -21.33,6.88 -8.65,2.26 -18.48,4.23 -29.59,5.9 -11.1,1.67 -22.99,2.56 -35.67,2.56 -22.9,0 -42.86,-2.85 -60.06,-8.65 -17.1,-5.7 -31.45,-14.45 -43.05,-26.15 -11.5,-11.69 -20.05,-26.53 -25.75,-44.32 -5.6,-17.89 -8.45,-38.83 -8.45,-62.81 0,-22.8 2.95,-43.34 8.94,-61.72 5.9,-18.28 14.55,-33.81 25.95,-46.59 11.3,-12.78 25.06,-22.51 41.28,-29.19 16.32,-6.78 34.6,-10.13 54.94,-10.13 21.53,0 39.91,3.15 55.14,9.54 15.34,6.29 27.82,15.13 37.65,26.34 9.73,11.2 17,24.57 21.62,39.9 4.62,15.34 6.88,32.04 6.88,50.13l0 11.5zm-70.18 -20.64c0.59,-20.35 -3.53,-36.37 -12.28,-47.96 -8.75,-11.7 -22.22,-17.5 -40.5,-17.5 -9.24,0 -17.29,1.77 -24.08,5.21 -6.88,3.44 -12.58,8.06 -17.1,13.96 -4.52,5.89 -7.96,12.77 -10.32,20.73 -2.46,8.06 -3.83,16.52 -4.23,25.56l108.51 0zm398.01 131.31c0,8.45 -0.49,14.94 -1.57,19.46 -1.08,4.52 -2.46,7.67 -4.23,9.44 -1.67,1.86 -4.22,3.53 -7.57,4.91 -3.44,1.47 -7.37,2.75 -11.89,3.74 -4.42,1.08 -9.34,1.86 -14.64,2.45 -5.31,0.59 -10.62,0.89 -16.02,0.89 -14.35,0 -26.84,-1.87 -37.45,-5.51 -10.52,-3.63 -19.27,-9.24 -26.24,-16.8 -6.88,-7.57 -12,-17.11 -15.24,-28.7 -3.24,-11.5 -4.91,-25.16 -4.91,-40.89l0 -131.61 -31.16 0c-3.64,0 -6.49,-2.26 -8.35,-6.78 -1.97,-4.52 -2.95,-12.09 -2.95,-22.7 0,-5.61 0.19,-10.32 0.68,-14.16 0.5,-3.83 1.28,-6.88 2.27,-9.14 0.88,-2.16 2.16,-3.73 3.63,-4.71 1.38,-0.99 3.15,-1.48 5.01,-1.48l30.87 0 0 -57.5c0,-1.86 0.49,-3.63 1.57,-5.21 1.08,-1.47 3.05,-2.75 5.8,-3.83 2.75,-1.08 6.58,-1.87 11.3,-2.36 4.72,-0.49 10.52,-0.69 17.5,-0.69 7.07,0 12.97,0.2 17.69,0.69 4.72,0.49 8.45,1.28 11.2,2.36 2.66,1.08 4.62,2.36 5.7,3.83 1.18,1.58 1.77,3.35 1.77,5.21l0 57.5 55.73 0c1.97,0 3.64,0.49 5.01,1.48 1.48,0.98 2.66,2.55 3.64,4.71 0.98,2.26 1.67,5.31 2.16,9.14 0.49,3.84 0.69,8.55 0.69,14.16 0,10.61 -0.98,18.18 -2.85,22.7 -1.97,4.52 -4.72,6.78 -8.35,6.78l-56.03 0 0 120.7c0,14.05 2.16,24.57 6.59,31.55 4.42,6.98 12.28,10.52 23.59,10.52 3.83,0 7.27,-0.3 10.32,-0.99 3.04,-0.68 5.8,-1.47 8.15,-2.36 2.46,-0.78 4.43,-1.57 6.1,-2.26 1.57,-0.68 3.14,-0.98 4.42,-0.98 1.18,0 2.26,0.3 3.34,0.98 0.99,0.69 1.87,1.97 2.46,4.03 0.49,1.97 1.08,4.72 1.57,8.16 0.49,3.54 0.69,7.86 0.69,13.27z"/>
  </g>
 </g>
</svg>
