<?xml version="1.0" encoding="UTF-8"?>
<svg width="120px" height="40px" viewBox="0 0 120 40" version="1.1" xmlns="http://www.w3.org/2000/svg" xmlns:xlink="http://www.w3.org/1999/xlink">
    <title>Client Logo 1</title>
    <g stroke="none" stroke-width="1" fill="none" fill-rule="evenodd">
        <g fill="#333333" fill-rule="nonzero">
            <path d="M20,10 C14.4771525,10 10,14.4771525 10,20 C10,25.5228475 14.4771525,30 20,30 C25.5228475,30 30,25.5228475 30,20 C30,14.4771525 25.5228475,10 20,10 Z M20,26 C16.6862915,26 14,23.3137085 14,20 C14,16.6862915 16.6862915,14 20,14 C23.3137085,14 26,16.6862915 26,20 C26,23.3137085 23.3137085,26 20,26 Z"></path>
            <path d="M40,15 L45,15 C47.7614237,15 50,17.2385763 50,20 C50,22.7614237 47.7614237,25 45,25 L40,25 L40,15 Z M44,21 L45,21 C45.5522847,21 46,20.5522847 46,20 C46,19.4477153 45.5522847,19 45,19 L44,19 L44,21 Z"></path>
            <rect x="55" y="15" width="4" height="10"></rect>
            <polygon points="65 15 69 15 72 20 75 15 79 15 79 25 75 25 75 20 72 25 69 20 69 25 65 25"></polygon>
            <path d="M85,15 L90,15 C92.7614237,15 95,17.2385763 95,20 C95,22.7614237 92.7614237,25 90,25 L85,25 L85,15 Z M89,21 L90,21 C90.5522847,21 91,20.5522847 91,20 C91,19.4477153 90.5522847,19 90,19 L89,19 L89,21 Z"></path>
            <path d="M100,15 L110,15 L110,18 L104,18 L104,19 L109,19 L109,22 L104,22 L104,25 L100,25 L100,15 Z"></path>
        </g>
    </g>
</svg>
