<?xml version="1.0" encoding="UTF-8"?>
<svg width="120px" height="40px" viewBox="0 0 120 40" version="1.1" xmlns="http://www.w3.org/2000/svg" xmlns:xlink="http://www.w3.org/1999/xlink">
    <title>Client Logo 3</title>
    <g stroke="none" stroke-width="1" fill="none" fill-rule="evenodd">
        <g fill="#333333" fill-rule="nonzero">
            <path d="M20,10 C14.4771525,10 10,14.4771525 10,20 C10,25.5228475 14.4771525,30 20,30 C25.5228475,30 30,25.5228475 30,20 C30,14.4771525 25.5228475,10 20,10 Z"></path>
            <rect x="35" y="10" width="5" height="20"></rect>
            <path d="M45,10 L65,10 L65,15 L55,15 L55,17.5 L60,17.5 L60,22.5 L55,22.5 L55,25 L65,25 L65,30 L45,30 L45,10 Z"></path>
            <path d="M70,10 L90,10 L90,15 L80,15 L80,17.5 L85,17.5 L85,22.5 L80,22.5 L80,25 L90,25 L90,30 L70,30 L70,10 Z"></path>
            <rect x="95" y="10" width="5" height="20"></rect>
            <path d="M105,10 L110,10 L110,30 L105,30 L105,10 Z"></path>
        </g>
    </g>
</svg>
